<?xml version="1.0" standalone="no"?>
<!DOCTYPE svg PUBLIC "-//W3C//DTD SVG 20010904//EN"
 "http://www.w3.org/TR/2001/REC-SVG-20010904/DTD/svg10.dtd">
<svg version="1.0" xmlns="http://www.w3.org/2000/svg"
 width="135.000000pt" height="137.000000pt" viewBox="0 0 135.000000 137.000000"
 preserveAspectRatio="xMidYMid meet">

<g transform="translate(0.000000,137.000000) scale(0.100000,-0.100000)"
fill="#000000" stroke="none">
<path d="M510 1344 c-129 -28 -283 -126 -367 -235 -203 -264 -189 -628 34
-869 241 -260 640 -289 911 -66 316 258 332 725 36 1005 -162 153 -387 214
-614 165z m280 -89 c79 -21 186 -76 254 -132 110 -89 184 -233 189 -368 l2
-60 -567 -3 -568 -2 0 48 c0 110 52 240 132 328 149 162 373 238 558 189z"/>
</g>
</svg>
